<svg width="873" height="266" viewBox="0 0 873 266" fill="none" xmlns="http://www.w3.org/2000/svg">
    <mask id="path-1-outside-1_1655_423" maskUnits="userSpaceOnUse" x="0" y="0" width="873" height="266" fill="black">
        <rect fill="white" width="873" height="266"/>
        <path d="M240.6 152.84H275.16V212.04H240.6V253H159.32V212.04H7V154.44L136.6 13H240.6V152.84ZM159.32 74.12L87.64 152.84H159.32V74.12ZM438.173 258.76C410.546 258.76 386.119 253.533 364.893 243.08C343.773 232.627 327.399 217.907 315.773 198.92C304.146 179.933 298.333 157.96 298.333 133C298.333 108.04 304.146 86.0667 315.773 67.08C327.399 48.0933 343.773 33.3733 364.893 22.92C386.119 12.4667 410.546 7.24 438.173 7.24C465.799 7.24 490.173 12.4667 511.293 22.92C532.519 33.3733 548.946 48.0933 560.573 67.08C572.199 86.0667 578.013 108.04 578.013 133C578.013 157.96 572.199 179.933 560.573 198.92C548.946 217.907 532.519 232.627 511.293 243.08C490.173 253.533 465.799 258.76 438.173 258.76ZM438.173 192.2C456.519 192.2 470.759 187.027 480.893 176.68C491.026 166.333 496.093 151.773 496.093 133C496.093 114.227 491.026 99.6667 480.893 89.32C470.759 78.9733 456.519 73.8 438.173 73.8C419.826 73.8 405.586 78.9733 395.453 89.32C385.319 99.6667 380.253 114.227 380.253 133C380.253 151.773 385.319 166.333 395.453 176.68C405.586 187.027 419.826 192.2 438.173 192.2ZM831.225 152.84H865.785V212.04H831.225V253H749.945V212.04H597.625V154.44L727.225 13H831.225V152.84ZM749.945 74.12L678.265 152.84H749.945V74.12Z"/>
    </mask>
    <path d="M240.6 152.84H275.16V212.04H240.6V253H159.32V212.04H7V154.44L136.6 13H240.6V152.84ZM159.32 74.12L87.64 152.84H159.32V74.12ZM438.173 258.76C410.546 258.76 386.119 253.533 364.893 243.08C343.773 232.627 327.399 217.907 315.773 198.92C304.146 179.933 298.333 157.96 298.333 133C298.333 108.04 304.146 86.0667 315.773 67.08C327.399 48.0933 343.773 33.3733 364.893 22.92C386.119 12.4667 410.546 7.24 438.173 7.24C465.799 7.24 490.173 12.4667 511.293 22.92C532.519 33.3733 548.946 48.0933 560.573 67.08C572.199 86.0667 578.013 108.04 578.013 133C578.013 157.96 572.199 179.933 560.573 198.92C548.946 217.907 532.519 232.627 511.293 243.08C490.173 253.533 465.799 258.76 438.173 258.76ZM438.173 192.2C456.519 192.2 470.759 187.027 480.893 176.68C491.026 166.333 496.093 151.773 496.093 133C496.093 114.227 491.026 99.6667 480.893 89.32C470.759 78.9733 456.519 73.8 438.173 73.8C419.826 73.8 405.586 78.9733 395.453 89.32C385.319 99.6667 380.253 114.227 380.253 133C380.253 151.773 385.319 166.333 395.453 176.68C405.586 187.027 419.826 192.2 438.173 192.2ZM831.225 152.84H865.785V212.04H831.225V253H749.945V212.04H597.625V154.44L727.225 13H831.225V152.84ZM749.945 74.12L678.265 152.84H749.945V74.12Z" fill="black"/>
    <path d="M240.6 152.84H233.6V159.84H240.6V152.84ZM275.16 152.84H282.16V145.84H275.16V152.84ZM275.16 212.04V219.04H282.16V212.04H275.16ZM240.6 212.04V205.04H233.6V212.04H240.6ZM240.6 253V260H247.6V253H240.6ZM159.32 253H152.32V260H159.32V253ZM159.32 212.04H166.32V205.04H159.32V212.04ZM7 212.04H1.19209e-07V219.04H7V212.04ZM7 154.44L1.83895 149.711L1.19209e-07 151.718V154.44H7ZM136.6 13V5.99998H133.52L131.439 8.27097L136.6 13ZM240.6 13H247.6V5.99998H240.6V13ZM159.32 74.12H166.32V56.0355L154.144 69.4071L159.32 74.12ZM87.64 152.84L82.4642 148.127L71.7988 159.84H87.64V152.84ZM159.32 152.84V159.84H166.32V152.84H159.32ZM240.6 159.84H275.16V145.84H240.6V159.84ZM268.16 152.84V212.04H282.16V152.84H268.16ZM275.16 205.04H240.6V219.04H275.16V205.04ZM233.6 212.04V253H247.6V212.04H233.6ZM240.6 246H159.32V260H240.6V246ZM166.32 253V212.04H152.32V253H166.32ZM159.32 205.04H7V219.04H159.32V205.04ZM14 212.04V154.44H1.19209e-07V212.04H14ZM12.161 159.169L141.761 17.729L131.439 8.27097L1.83895 149.711L12.161 159.169ZM136.6 20H240.6V5.99998H136.6V20ZM233.6 13V152.84H247.6V13H233.6ZM154.144 69.4071L82.4642 148.127L92.8158 157.553L164.496 78.8329L154.144 69.4071ZM87.64 159.84H159.32V145.84H87.64V159.84ZM166.32 152.84V74.12H152.32V152.84H166.32ZM364.893 243.08L361.787 249.354L361.8 249.36L364.893 243.08ZM315.772 198.92L321.742 195.264L315.772 198.92ZM315.772 67.08L309.803 63.4244V63.4244L315.772 67.08ZM364.893 22.92L361.8 16.6402L361.787 16.6464L364.893 22.92ZM511.293 22.92L508.187 29.1936L508.2 29.1998L511.293 22.92ZM560.573 67.08L566.542 63.4244L560.573 67.08ZM560.573 198.92L554.603 195.264L560.573 198.92ZM511.293 243.08L508.2 236.8L508.187 236.806L511.293 243.08ZM480.893 176.68L475.891 171.782L480.893 176.68ZM480.893 89.32L475.891 94.2179L480.893 89.32ZM395.453 89.32L390.451 84.4221L395.453 89.32ZM395.453 176.68L390.451 181.578L395.453 176.68ZM438.173 251.76C411.439 251.76 388.101 246.706 367.985 236.8L361.8 249.36C384.137 260.36 409.653 265.76 438.173 265.76V251.76ZM367.998 236.806C347.988 226.903 332.639 213.059 321.742 195.264L309.803 202.576C322.16 222.754 339.557 238.351 361.787 249.354L367.998 236.806ZM321.742 195.264C310.868 177.507 305.332 156.83 305.332 133H291.332C291.332 159.09 297.423 182.359 309.803 202.576L321.742 195.264ZM305.332 133C305.332 109.17 310.868 88.4927 321.742 70.7356L309.803 63.4244C297.423 83.6406 291.332 106.91 291.332 133H305.332ZM321.742 70.7356C332.639 52.941 347.988 39.0975 367.998 29.1936L361.787 16.6464C339.557 27.6492 322.16 43.2456 309.803 63.4244L321.742 70.7356ZM367.985 29.1998C388.101 19.2935 411.439 14.24 438.173 14.24V0.239998C409.653 0.239998 384.137 5.63979 361.8 16.6402L367.985 29.1998ZM438.173 14.24C464.907 14.24 488.186 19.2939 508.187 29.1936L514.398 16.6464C492.159 5.63947 466.691 0.239998 438.173 0.239998V14.24ZM508.2 29.1998C528.317 39.1065 543.712 52.9501 554.603 70.7356L566.542 63.4244C554.18 43.2366 536.722 27.6401 514.385 16.6402L508.2 29.1998ZM554.603 70.7356C565.477 88.4927 571.013 109.17 571.013 133H585.013C585.013 106.91 578.922 83.6406 566.542 63.4244L554.603 70.7356ZM571.013 133C571.013 156.83 565.477 177.507 554.603 195.264L566.542 202.576C578.922 182.359 585.013 159.09 585.013 133H571.013ZM554.603 195.264C543.712 213.05 528.317 226.893 508.2 236.8L514.385 249.36C536.722 238.36 554.18 222.763 566.542 202.576L554.603 195.264ZM508.187 236.806C488.186 246.706 464.907 251.76 438.173 251.76V265.76C466.691 265.76 492.159 260.361 514.398 249.354L508.187 236.806ZM438.173 199.2C457.871 199.2 474.114 193.605 485.894 181.578L475.891 171.782C467.404 180.448 455.167 185.2 438.173 185.2V199.2ZM485.894 181.578C497.655 169.569 503.093 153.04 503.093 133H489.093C489.093 150.506 484.396 163.098 475.891 171.782L485.894 181.578ZM503.093 133C503.093 112.96 497.655 96.4314 485.894 84.4221L475.891 94.2179C484.396 102.902 489.093 115.494 489.093 133H503.093ZM485.894 84.4221C474.114 72.3946 457.871 66.8 438.173 66.8V80.8C455.167 80.8 467.404 85.5521 475.891 94.2179L485.894 84.4221ZM438.173 66.8C418.474 66.8 402.231 72.3946 390.451 84.4221L400.454 94.2179C408.941 85.5521 421.178 80.8 438.173 80.8V66.8ZM390.451 84.4221C378.69 96.4314 373.253 112.96 373.253 133H387.253C387.253 115.494 391.949 102.902 400.454 94.2179L390.451 84.4221ZM373.253 133C373.253 153.04 378.69 169.569 390.451 181.578L400.454 171.782C391.949 163.098 387.253 150.506 387.253 133H373.253ZM390.451 181.578C402.231 193.605 418.474 199.2 438.173 199.2V185.2C421.178 185.2 408.941 180.448 400.454 171.782L390.451 181.578ZM831.225 152.84H824.225V159.84H831.225V152.84ZM865.785 152.84H872.785V145.84H865.785V152.84ZM865.785 212.04V219.04H872.785V212.04H865.785ZM831.225 212.04V205.04H824.225V212.04H831.225ZM831.225 253V260H838.225V253H831.225ZM749.945 253H742.945V260H749.945V253ZM749.945 212.04H756.945V205.04H749.945V212.04ZM597.625 212.04H590.625V219.04H597.625V212.04ZM597.625 154.44L592.464 149.711L590.625 151.718V154.44H597.625ZM727.225 13V5.99998H724.145L722.064 8.27097L727.225 13ZM831.225 13H838.225V5.99998H831.225V13ZM749.945 74.12H756.945V56.0355L744.769 69.4071L749.945 74.12ZM678.265 152.84L673.089 148.127L662.424 159.84H678.265V152.84ZM749.945 152.84V159.84H756.945V152.84H749.945ZM831.225 159.84H865.785V145.84H831.225V159.84ZM858.785 152.84V212.04H872.785V152.84H858.785ZM865.785 205.04H831.225V219.04H865.785V205.04ZM824.225 212.04V253H838.225V212.04H824.225ZM831.225 246H749.945V260H831.225V246ZM756.945 253V212.04H742.945V253H756.945ZM749.945 205.04H597.625V219.04H749.945V205.04ZM604.625 212.04V154.44H590.625V212.04H604.625ZM602.786 159.169L732.386 17.729L722.064 8.27097L592.464 149.711L602.786 159.169ZM727.225 20H831.225V5.99998H727.225V20ZM824.225 13V152.84H838.225V13H824.225ZM744.769 69.4071L673.089 148.127L683.441 157.553L755.121 78.8329L744.769 69.4071ZM678.265 159.84H749.945V145.84H678.265V159.84ZM756.945 152.84V74.12H742.945V152.84H756.945Z" fill="#EE4823" mask="url(#path-1-outside-1_1655_423)"/>
</svg>