<svg width="44" height="44" viewBox="0 0 44 44" fill="none" xmlns="http://www.w3.org/2000/svg">
    <g clip-path="url(#clip0_740_501)">
        <path d="M5.59097 17.0683C5.51304 16.8356 5.48263 16.5896 5.50155 16.3449C5.52047 16.1002 5.58833 15.8618 5.70111 15.6438C5.81389 15.4258 5.96929 15.2327 6.1581 15.0759C6.34691 14.9191 6.56528 14.8018 6.80027 14.7309C7.03526 14.6601 7.28208 14.6371 7.52609 14.6635C7.77011 14.6898 8.00636 14.7649 8.22083 14.8842C8.4353 15.0035 8.62362 15.1647 8.77464 15.3582C8.92565 15.5517 9.03628 15.7735 9.09997 16.0105C12.9243 28.8182 31.067 28.82 34.895 16.0178C34.9636 15.787 35.077 15.5719 35.2288 15.3848C35.3805 15.1977 35.5676 15.0424 35.7794 14.9277C35.9912 14.8129 36.2235 14.741 36.463 14.7161C36.7026 14.6911 36.9447 14.7136 37.1756 14.7822C37.4065 14.8508 37.6216 14.9642 37.8087 15.116C37.9957 15.2677 38.1511 15.4548 38.2658 15.6666C38.3806 15.8784 38.4525 16.1107 38.4774 16.3503C38.5024 16.5898 38.4799 16.832 38.4113 17.0628C37.7443 19.3567 36.6129 21.489 35.0875 23.3273L37.425 25.6667C37.7589 26.0125 37.9437 26.4756 37.9395 26.9563C37.9354 27.4369 37.7425 27.8968 37.4026 28.2367C37.0627 28.5766 36.6029 28.7694 36.1222 28.7736C35.6415 28.7778 35.1784 28.593 34.8326 28.259L32.4291 25.8555C31.132 26.8336 29.6991 27.6174 28.1758 28.182L28.8303 30.6295C28.9001 30.8643 28.9222 31.1106 28.8952 31.3541C28.8682 31.5975 28.7928 31.8331 28.6732 32.0468C28.5537 32.2606 28.3926 32.4483 28.1993 32.5987C28.0061 32.7492 27.7846 32.8594 27.548 32.9229C27.3115 32.9863 27.0646 33.0018 26.822 32.9682C26.5794 32.9347 26.3459 32.8529 26.1355 32.7276C25.925 32.6024 25.7418 32.4362 25.5966 32.239C25.4514 32.0417 25.3472 31.8174 25.2901 31.5792L24.6228 29.0913C22.8866 29.348 21.112 29.348 19.3758 29.0913L18.7085 31.5792C18.6514 31.8174 18.5472 32.0417 18.402 32.239C18.2568 32.4362 18.0736 32.6024 17.8631 32.7276C17.6527 32.8529 17.4192 32.9347 17.1766 32.9682C16.934 33.0018 16.6871 32.9863 16.4506 32.9229C16.214 32.8594 15.9925 32.7492 15.7993 32.5987C15.606 32.4483 15.4449 32.2606 15.3254 32.0468C15.2058 31.8331 15.1304 31.5975 15.1034 31.3541C15.0764 31.1106 15.0985 30.8643 15.1683 30.6295L15.8228 28.182C14.2994 27.6168 12.8665 26.8324 11.5695 25.8537L9.1678 28.259C8.82403 28.6033 8.3576 28.7969 7.8711 28.7972C7.3846 28.7975 6.91788 28.6046 6.57363 28.2608C6.22938 27.9171 6.03579 27.4506 6.03545 26.9641C6.0351 26.4776 6.22804 26.0109 6.5718 25.6667L8.9093 23.3292C7.47197 21.6132 6.3243 19.5268 5.5873 17.0702L5.59097 17.0683Z" fill="#3DA2D6"/>
    </g>
    <defs>
        <clipPath id="clip0_740_501">
            <rect width="44" height="44" fill="white"/>
        </clipPath>
    </defs>
</svg>