<svg width="182" height="67" viewBox="0 0 182 67" fill="none" xmlns="http://www.w3.org/2000/svg">
<path d="M128.421 31.2026H135.024L126.691 48.8869C125.841 50.6984 124.732 52.014 123.366 52.8337C122 53.6534 120.497 54.0632 118.858 54.0632C117.593 54.0632 116.46 53.9064 115.458 53.5926C114.466 53.2891 113.499 52.7982 112.558 52.1202V47.8244C113.52 48.4315 114.415 48.8667 115.245 49.1298C116.075 49.3929 116.986 49.5245 117.977 49.5245C118.878 49.5245 119.637 49.3322 120.254 48.9477C120.872 48.5631 121.378 47.9053 121.772 46.9743L121.788 46.9287H119.07L111.693 31.2026H118.539L123.427 43.0427L128.421 31.2026ZM146.035 49.0539C143.839 49.0539 141.901 48.6744 140.221 47.9154C138.541 47.1463 137.235 46.0686 136.304 44.6821C135.383 43.2957 134.923 41.6968 134.923 39.8854C134.923 38.0739 135.383 36.475 136.304 35.0886C137.235 33.692 138.541 32.6143 140.221 31.8553C141.901 31.0862 143.839 30.7016 146.035 30.7016C148.231 30.7016 150.169 31.0862 151.848 31.8553C153.528 32.6143 154.829 33.692 155.75 35.0886C156.681 36.475 157.146 38.0739 157.146 39.8854C157.146 41.6968 156.681 43.2957 155.75 44.6821C154.829 46.0686 153.528 47.1463 151.848 47.9154C150.169 48.6744 148.231 49.0539 146.035 49.0539ZM146.035 44.4393C147.036 44.4393 147.902 44.2571 148.63 43.8928C149.359 43.5285 149.916 43.0073 150.3 42.3293C150.685 41.6411 150.877 40.8265 150.877 39.8854C150.877 38.9442 150.68 38.1296 150.285 37.4414C149.9 36.7533 149.344 36.227 148.615 35.8627C147.897 35.4984 147.036 35.3163 146.035 35.3163C145.033 35.3163 144.167 35.4984 143.439 35.8627C142.71 36.227 142.149 36.7533 141.754 37.4414C141.369 38.1296 141.177 38.9442 141.177 39.8854C141.177 40.8265 141.369 41.6411 141.754 42.3293C142.149 43.0073 142.71 43.5285 143.439 43.8928C144.167 44.2571 145.033 44.4393 146.035 44.4393ZM180.706 48.553H174.512L173.92 44.9706C173.181 46.2963 172.23 47.3082 171.066 48.0065C169.903 48.6947 168.612 49.0387 167.196 49.0387C165.597 49.0387 164.22 48.7098 163.067 48.052C161.913 47.3841 161.033 46.4379 160.425 45.2134C159.818 43.9889 159.515 42.5519 159.515 40.9024V31.2026H165.723V40.0068C165.723 41.292 166.032 42.2787 166.649 42.9668C167.277 43.6449 168.172 43.9839 169.336 43.9839C170.621 43.9839 171.613 43.5993 172.311 42.8302C173.02 42.051 173.374 40.9581 173.374 39.5514V31.2026H179.582V42.5722L180.706 48.553Z" fill="black"/>
<mask id="path-2-outside-1_802_393" maskUnits="userSpaceOnUse" x="68.7134" y="12" width="48" height="43" fill="black">
<rect fill="white" x="68.7134" y="12" width="48" height="43"/>
<path d="M109.463 13.5207V54H95.7535V19.7276H99.4776L79.8857 41.2625V37.1067H115.292V47.0915H70.0627V37.3765L91.9215 13.5207H109.463Z"/>
</mask>
<path d="M109.463 13.5207V54H95.7535V19.7276H99.4776L79.8857 41.2625V37.1067H115.292V47.0915H70.0627V37.3765L91.9215 13.5207H109.463Z" fill="#FEF8E7"/>
<path d="M109.463 13.5207H110.306V12.6774H109.463V13.5207ZM109.463 54V54.8433H110.306V54H109.463ZM95.7535 54H94.9102V54.8433H95.7535V54ZM95.7535 19.7276V18.8842H94.9102V19.7276H95.7535ZM99.4776 19.7276L100.101 20.2951L101.385 18.8842H99.4776V19.7276ZM79.8857 41.2625H79.0423V43.4426L80.5094 41.83L79.8857 41.2625ZM79.8857 37.1067V36.2633H79.0423V37.1067H79.8857ZM115.292 37.1067H116.135V36.2633H115.292V37.1067ZM115.292 47.0915V47.9349H116.135V47.0915H115.292ZM70.0627 47.0915H69.2194V47.9349H70.0627V47.0915ZM70.0627 37.3765L69.4409 36.8068L69.2194 37.0486V37.3765H70.0627ZM91.9215 13.5207V12.6774H91.5504L91.2997 12.951L91.9215 13.5207ZM108.619 13.5207V54H110.306V13.5207H108.619ZM109.463 53.1567H95.7535V54.8433H109.463V53.1567ZM96.5968 54V19.7276H94.9102V54H96.5968ZM95.7535 20.5709H99.4776V18.8842H95.7535V20.5709ZM98.8538 19.16L79.2619 40.695L80.5094 41.83L100.101 20.2951L98.8538 19.16ZM80.729 41.2625V37.1067H79.0423V41.2625H80.729ZM79.8857 37.95H115.292V36.2633H79.8857V37.95ZM114.448 37.1067V47.0915H116.135V37.1067H114.448ZM115.292 46.2482H70.0627V47.9349H115.292V46.2482ZM70.906 47.0915V37.3765H69.2194V47.0915H70.906ZM70.6845 37.9462L92.5433 14.0905L91.2997 12.951L69.4409 36.8068L70.6845 37.9462ZM91.9215 14.3641H109.463V12.6774H91.9215V14.3641Z" fill="black" mask="url(#path-2-outside-1_802_393)"/>
<path d="M21.7981 43.7494C21.7981 45.0853 21.3933 46.2086 20.5837 47.1193C19.7741 48.0301 18.6205 48.7183 17.1227 49.1838C15.625 49.6493 13.8237 49.8821 11.7187 49.8821C9.55311 49.8821 7.65058 49.6189 6.01117 49.0927C4.392 48.5665 3.12702 47.8277 2.21624 46.8765C1.30546 45.9252 0.819705 44.8221 0.758986 43.5673H7.04339C7.18507 44.0328 7.4583 44.4376 7.8631 44.7817C8.28813 45.1055 8.84472 45.3585 9.53287 45.5407C10.221 45.7026 11.0407 45.7835 11.992 45.7835C13.2266 45.7835 14.1576 45.6621 14.7851 45.4192C15.4327 45.1763 15.7566 44.812 15.7566 44.3263C15.7566 43.9417 15.5137 43.6584 15.0279 43.4762C14.5422 43.2738 13.7124 43.122 12.5385 43.0208L9.47215 42.7779C7.42795 42.6363 5.79865 42.3327 4.58428 41.8672C3.39014 41.3814 2.52995 40.7641 2.00372 40.0152C1.47749 39.2461 1.21438 38.3758 1.21438 37.4043C1.21438 36.0887 1.61917 35.0059 2.42876 34.1559C3.25858 33.2856 4.40212 32.6379 5.85937 32.2129C7.33687 31.7676 9.05724 31.5449 11.0205 31.5449C12.9635 31.5449 14.694 31.7979 16.2119 32.3039C17.7299 32.8099 18.9443 33.5183 19.8551 34.4291C20.7659 35.3196 21.2921 36.3721 21.4338 37.5865H15.1494C15.0482 37.2019 14.8255 36.8578 14.4815 36.5543C14.1374 36.2304 13.6618 35.9673 13.0546 35.7649C12.4474 35.5625 11.6681 35.4613 10.7169 35.4613C9.60371 35.4613 8.75364 35.5828 8.16669 35.8256C7.59998 36.0685 7.31663 36.4126 7.31663 36.8578C7.31663 37.2019 7.48866 37.4752 7.83274 37.6776C8.19705 37.88 8.86496 38.0216 9.83646 38.1026L13.8743 38.4062C15.878 38.5276 17.4567 38.8211 18.6103 39.2866C19.764 39.7319 20.5837 40.3289 21.0695 41.0778C21.5552 41.8267 21.7981 42.7172 21.7981 43.7494ZM24.4104 32.0611H30.6341V37.04L30.3609 37.7686V42.6261L30.6341 44.053V54.4056H24.4104V32.0611ZM28.6607 40.7439C28.9239 38.8616 29.4703 37.2424 30.3002 35.8863C31.1502 34.5101 32.2229 33.4475 33.5183 32.6986C34.8136 31.9295 36.281 31.5449 37.9204 31.5449C39.6205 31.5449 41.1081 31.9295 42.3832 32.6986C43.6785 33.4677 44.6804 34.5404 45.3888 35.9167C46.1174 37.293 46.4817 38.9021 46.4817 40.7439C46.4817 42.5452 46.1174 44.1441 45.3888 45.5407C44.6804 46.9169 43.6785 47.9896 42.3832 48.7588C41.1081 49.5076 39.6205 49.8821 37.9204 49.8821C36.281 49.8821 34.8136 49.5076 33.5183 48.7588C32.2229 47.9896 31.1603 46.9169 30.3305 45.5407C29.5007 44.1644 28.9441 42.5654 28.6607 40.7439ZM40.2277 40.7439C40.2277 39.8736 40.0455 39.1044 39.6812 38.4365C39.3371 37.7686 38.8413 37.2424 38.1936 36.8578C37.5662 36.4733 36.8477 36.281 36.0381 36.281C35.2083 36.281 34.4189 36.4733 33.6701 36.8578C32.9212 37.2424 32.2634 37.7686 31.6967 38.4365C31.13 39.1044 30.6948 39.8736 30.3912 40.7439C30.6948 41.5939 31.13 42.3529 31.6967 43.0208C32.2634 43.6887 32.9212 44.215 33.6701 44.5995C34.4189 44.9638 35.2083 45.146 36.0381 45.146C36.8477 45.146 37.5662 44.9638 38.1936 44.5995C38.8413 44.215 39.3371 43.6887 39.6812 43.0208C40.0455 42.3529 40.2277 41.5939 40.2277 40.7439ZM49.1664 26.0195H55.3901V37.1007L54.5704 38.6794V43.0512L55.3901 44.5691V49.3963H49.1664V26.0195ZM53.3864 40.7439C53.6697 38.8616 54.2263 37.2424 55.0561 35.8863C55.886 34.5101 56.9486 33.4475 58.2439 32.6986C59.5595 31.9295 61.0268 31.5449 62.646 31.5449C64.3461 31.5449 65.8338 31.9295 67.1088 32.6986C68.4042 33.4677 69.406 34.5404 70.1144 35.9167C70.8431 37.293 71.2074 38.9021 71.2074 40.7439C71.2074 42.5452 70.8431 44.1441 70.1144 45.5407C69.406 46.9169 68.4042 47.9896 67.1088 48.7588C65.8338 49.5076 64.3461 49.8821 62.646 49.8821C61.0066 49.8821 59.5392 49.5076 58.2439 48.7588C56.9486 47.9896 55.886 46.9169 55.0561 45.5407C54.2263 44.1644 53.6697 42.5654 53.3864 40.7439ZM64.9533 40.7439C64.9533 39.8736 64.7712 39.1044 64.4069 38.4365C64.0628 37.7686 63.577 37.2424 62.9496 36.8578C62.3222 36.4733 61.5935 36.281 60.7637 36.281C59.9339 36.281 59.1446 36.4733 58.3957 36.8578C57.6468 37.2424 56.989 37.7686 56.4223 38.4365C55.8556 39.1044 55.4205 39.8736 55.1169 40.7439C55.4205 41.5939 55.8556 42.3529 56.4223 43.0208C56.989 43.6887 57.6468 44.215 58.3957 44.5995C59.1446 44.9638 59.9339 45.146 60.7637 45.146C61.5935 45.146 62.3222 44.9638 62.9496 44.5995C63.577 44.215 64.0628 43.6887 64.4069 43.0208C64.7712 42.3529 64.9533 41.5939 64.9533 40.7439Z" fill="black"/>
</svg>
