<svg width="44" height="44" viewBox="0 0 44 44" fill="none" xmlns="http://www.w3.org/2000/svg">
    <g clip-path="url(#clip0_743_576)">
        <path d="M5.59097 26.9317C5.51304 27.1644 5.48263 27.4104 5.50155 27.6551C5.52047 27.8998 5.58833 28.1382 5.70111 28.3562C5.81389 28.5742 5.96929 28.7673 6.1581 28.9241C6.34691 29.0809 6.56528 29.1982 6.80027 29.2691C7.03526 29.3399 7.28208 29.3629 7.52609 29.3365C7.77011 29.3102 8.00636 29.2351 8.22083 29.1158C8.4353 28.9965 8.62362 28.8353 8.77464 28.6418C8.92565 28.4483 9.03628 28.2265 9.09997 27.9895C12.9243 15.1818 31.067 15.18 34.895 27.9822C34.9636 28.213 35.077 28.4281 35.2288 28.6152C35.3805 28.8023 35.5676 28.9576 35.7794 29.0723C35.9912 29.1871 36.2235 29.259 36.463 29.2839C36.7026 29.3089 36.9447 29.2864 37.1756 29.2178C37.4065 29.1492 37.6216 29.0358 37.8087 28.884C37.9957 28.7323 38.1511 28.5452 38.2658 28.3334C38.3806 28.1216 38.4525 27.8893 38.4774 27.6497C38.5024 27.4102 38.4799 27.168 38.4113 26.9372C37.7443 24.6433 36.6129 22.511 35.0875 20.6727L37.425 18.3333C37.7589 17.9875 37.9437 17.5244 37.9395 17.0437C37.9354 16.5631 37.7426 16.1032 37.4026 15.7633C37.0627 15.4234 36.6029 15.2306 36.1222 15.2264C35.6415 15.2222 35.1784 15.407 34.8326 15.741L32.4291 18.1445C31.132 17.1664 29.6991 16.3826 28.1758 15.818L28.8303 13.3705C28.9001 13.1357 28.9222 12.8894 28.8952 12.6459C28.8682 12.4025 28.7928 12.1669 28.6732 11.9532C28.5537 11.7394 28.3926 11.5517 28.1993 11.4013C28.0061 11.2508 27.7846 11.1406 27.548 11.0771C27.3115 11.0137 27.0646 10.9982 26.822 11.0318C26.5794 11.0653 26.3459 11.1471 26.1355 11.2724C25.925 11.3976 25.7418 11.5638 25.5966 11.761C25.4514 11.9583 25.3472 12.1826 25.2901 12.4208L24.6228 14.9087C22.8866 14.652 21.112 14.652 19.3758 14.9087L18.7085 12.4208C18.6514 12.1826 18.5472 11.9583 18.402 11.761C18.2568 11.5638 18.0736 11.3976 17.8631 11.2724C17.6527 11.1471 17.4192 11.0653 17.1766 11.0318C16.934 10.9982 16.6871 11.0137 16.4506 11.0771C16.214 11.1406 15.9926 11.2508 15.7993 11.4013C15.606 11.5517 15.4449 11.7394 15.3254 11.9532C15.2058 12.1669 15.1304 12.4025 15.1034 12.6459C15.0764 12.8894 15.0985 13.1357 15.1683 13.3705L15.8228 15.818C14.2994 16.3832 12.8665 17.1676 11.5695 18.1463L9.1678 15.741C8.82404 15.3967 8.3576 15.2031 7.8711 15.2028C7.3846 15.2025 6.91788 15.3954 6.57363 15.7392C6.22938 16.0829 6.03579 16.5494 6.03545 17.0359C6.0351 17.5224 6.22804 17.9891 6.5718 18.3333L8.9093 20.6708C7.47197 22.3868 6.3243 24.4732 5.5873 26.9298L5.59097 26.9317Z" fill="#3DA2D6"/>
        <circle cx="22" cy="25.6667" r="4" stroke="#3DA2D6" stroke-width="3"/>
    </g>
    <defs>
        <clipPath id="clip0_743_576">
            <rect width="44" height="44" fill="white" transform="matrix(1 0 0 -1 0 44)"/>
        </clipPath>
    </defs>
</svg>
