<svg width="37" height="16" viewBox="0 0 37 16" fill="none" xmlns="http://www.w3.org/2000/svg">
<path d="M35.5381 9.2627C36.0904 9.2627 36.5381 8.81498 36.5381 8.2627C36.5381 7.71041 36.0904 7.2627 35.5381 7.2627V9.2627ZM0.292774 7.55559C-0.0977478 7.94611 -0.0977478 8.57928 0.292774 8.9698L6.65674 15.3338C7.04726 15.7243 7.68043 15.7243 8.07095 15.3338C8.46147 14.9432 8.46147 14.3101 8.07095 13.9195L2.4141 8.2627L8.07095 2.60584C8.46147 2.21532 8.46147 1.58215 8.07095 1.19163C7.68043 0.801103 7.04726 0.801103 6.65674 1.19163L0.292774 7.55559ZM35.5381 7.2627L0.999882 7.2627V9.2627L35.5381 9.2627V7.2627Z" fill="#1C1C1C" fill-opacity="0.7"/>
</svg>
